<?xml version="1.0" encoding="UTF-8" standalone="no"?>
<!DOCTYPE svg PUBLIC "-//W3C//DTD SVG 1.1//EN" "http://www.w3.org/Graphics/SVG/1.1/DTD/svg11.dtd">
<svg width="515.00" height="400.00" viewBox="0.00 0.00 515.00 400.00" xmlns="http://www.w3.org/2000/svg" xmlns:xlink="http://www.w3.org/1999/xlink">
<g stroke-linecap="round" id="Layer_3">
<path d="M143.52,406.86 L115.16,349.71" fill="none" stroke="rgb(62, 65, 73)" stroke-width="10.00" stroke-opacity="1.00" stroke-linejoin="round"/>
<path d="M115.16,349.71 L122.78,296.36" fill="none" stroke="rgb(62, 65, 73)" stroke-width="10.00" stroke-opacity="1.00" stroke-linejoin="round"/>
<path d="M122.78,296.36 L101.61,215.92" fill="none" stroke="rgb(62, 65, 73)" stroke-width="10.00" stroke-opacity="1.00" stroke-linejoin="round"/>
<path d="M101.61,215.92 L154.96,112.62" fill="none" stroke="rgb(62, 65, 73)" stroke-width="10.00" stroke-opacity="1.00" stroke-linejoin="round"/>
<path d="M154.96,112.62 L256.14,76.63" fill="none" stroke="rgb(62, 65, 73)" stroke-width="10.00" stroke-opacity="1.00" stroke-linejoin="round"/>
<path d="M256.14,76.63 L310.34,93.99" fill="none" stroke="rgb(62, 65, 73)" stroke-width="10.00" stroke-opacity="1.00" stroke-linejoin="round"/>
<path d="M310.34,93.99 L391.20,52.92" fill="none" stroke="rgb(62, 65, 73)" stroke-width="10.00" stroke-opacity="1.00" stroke-linejoin="round"/>
<path d="M391.20,52.92 L438.62,60.12" fill="none" stroke="rgb(62, 65, 73)" stroke-width="10.00" stroke-opacity="1.00" stroke-linejoin="round"/>
<path d="M438.62,60.12 L493.66,16.51" fill="none" stroke="rgb(62, 65, 73)" stroke-width="10.00" stroke-opacity="1.00" stroke-linejoin="round"/>
<path d="M493.66,16.51 L477.99,-22.02" fill="none" stroke="rgb(62, 65, 73)" stroke-width="10.00" stroke-opacity="1.00" stroke-linejoin="round"/>
<path d="M19.28,409.37 L63.36,318.46" fill="none" stroke="rgb(62, 65, 73)" stroke-width="10.00" stroke-opacity="1.00" stroke-linejoin="round"/>
<path d="M63.36,318.46 L6.06,156.47" fill="none" stroke="rgb(62, 65, 73)" stroke-width="10.00" stroke-opacity="1.00" stroke-linejoin="round"/>
<path d="M6.06,156.47 L104.68,61.71" fill="none" stroke="rgb(62, 65, 73)" stroke-width="10.00" stroke-opacity="1.00" stroke-linejoin="round"/>
<path d="M104.68,61.71 L195.04,62.26" fill="none" stroke="rgb(62, 65, 73)" stroke-width="10.00" stroke-opacity="1.00" stroke-linejoin="round"/>
<path d="M194.49,62.26 L314.60,-3.31" fill="none" stroke="rgb(62, 65, 73)" stroke-width="10.00" stroke-opacity="1.00" stroke-linejoin="round"/>
<path d="M314.60,-3.31 L425.34,24.79" fill="none" stroke="rgb(62, 65, 73)" stroke-width="10.00" stroke-opacity="1.00" stroke-linejoin="round"/>
<path d="M425.34,24.79 L484.85,-76.03" fill="none" stroke="rgb(62, 65, 73)" stroke-width="10.00" stroke-opacity="1.00" stroke-linejoin="round"/>
<path d="M-16.21,112.46 L43.81,23.46" fill="none" stroke="rgb(62, 65, 73)" stroke-width="10.00" stroke-opacity="1.00" stroke-linejoin="round"/>
<path d="M43.81,23.46 L141.43,28.63" fill="none" stroke="rgb(62, 65, 73)" stroke-width="10.00" stroke-opacity="1.00" stroke-linejoin="round"/>
<path d="M141.43,28.63 L230.09,-139.71" fill="none" stroke="rgb(62, 65, 73)" stroke-width="10.00" stroke-opacity="1.00" stroke-linejoin="round"/>
<path d="M116.00,351.00 L62.50,317.50" fill="none" stroke="rgb(62, 65, 73)" stroke-width="10.00" stroke-opacity="1.00" stroke-linejoin="round"/>
<path d="M62.50,317.50 L122.50,296.00" fill="none" stroke="rgb(62, 65, 73)" stroke-width="10.00" stroke-opacity="1.00" stroke-linejoin="round"/>
<path d="M101.61,215.92 L62.24,315.84" fill="none" stroke="rgb(62, 65, 73)" stroke-width="10.00" stroke-opacity="1.00" stroke-linejoin="round"/>
<path d="M102.46,216.77 L5.93,154.96" fill="none" stroke="rgb(62, 65, 73)" stroke-width="10.00" stroke-opacity="1.00" stroke-linejoin="round"/>
<path d="M114.74,351.40 L20.32,404.32" fill="none" stroke="rgb(62, 65, 73)" stroke-width="10.00" stroke-opacity="1.00" stroke-linejoin="round"/>
<path d="M63.08,317.53 L-39.37,360.29" fill="none" stroke="rgb(62, 65, 73)" stroke-width="10.00" stroke-opacity="1.00" stroke-linejoin="round"/>
<path d="M4.25,156.25 L-3.50,346.25" fill="none" stroke="rgb(62, 65, 73)" stroke-width="10.00" stroke-opacity="1.00" stroke-linejoin="round"/>
<path d="M4.50,159.25 L-16.75,80.25" fill="none" stroke="rgb(62, 65, 73)" stroke-width="10.00" stroke-opacity="1.00" stroke-linejoin="round"/>
<path d="M-11.00,108.00 L104.00,62.50" fill="none" stroke="rgb(62, 65, 73)" stroke-width="10.00" stroke-opacity="1.00" stroke-linejoin="round"/>
<path d="M8.50,153.00 L154.50,112.50" fill="none" stroke="rgb(62, 65, 73)" stroke-width="10.00" stroke-opacity="1.00" stroke-linejoin="round"/>
<path d="M104.50,62.00 L153.50,113.00" fill="none" stroke="rgb(62, 65, 73)" stroke-width="10.00" stroke-opacity="1.00" stroke-linejoin="round"/>
<path d="M153.50,113.00 L197.00,62.00" fill="none" stroke="rgb(62, 65, 73)" stroke-width="10.00" stroke-opacity="1.00" stroke-linejoin="round"/>
<path d="M492.39,14.90 L424.40,24.84" fill="none" stroke="rgb(62, 65, 73)" stroke-width="10.00" stroke-opacity="1.00" stroke-linejoin="round"/>
<path d="M424.40,24.84 L440.23,58.37" fill="none" stroke="rgb(62, 65, 73)" stroke-width="10.00" stroke-opacity="1.00" stroke-linejoin="round"/>
<path d="M423.78,23.91 L390.87,53.09" fill="none" stroke="rgb(62, 65, 73)" stroke-width="10.00" stroke-opacity="1.00" stroke-linejoin="round"/>
<path d="M254.89,75.75 L391.49,52.47" fill="none" stroke="rgb(62, 65, 73)" stroke-width="10.00" stroke-opacity="1.00" stroke-linejoin="round"/>
<path d="M254.89,76.37 L195.28,64.27" fill="none" stroke="rgb(62, 65, 73)" stroke-width="10.00" stroke-opacity="1.00" stroke-linejoin="round"/>
<path d="M255.51,76.37 L316.67,-3.42" fill="none" stroke="rgb(62, 65, 73)" stroke-width="10.00" stroke-opacity="1.00" stroke-linejoin="round"/>
<path d="M417.57,24.22 L260.48,71.72" fill="none" stroke="rgb(62, 65, 73)" stroke-width="10.00" stroke-opacity="1.00" stroke-linejoin="round"/>
<path d="M139.84,27.45 L196.54,62.86" fill="none" stroke="rgb(62, 65, 73)" stroke-width="10.00" stroke-opacity="1.00" stroke-linejoin="round"/>
<path d="M140.61,27.71 L311.74,-4.11" fill="none" stroke="rgb(62, 65, 73)" stroke-width="10.00" stroke-opacity="1.00" stroke-linejoin="round"/>
<path d="M141.38,28.22 L104.43,62.61" fill="none" stroke="rgb(62, 65, 73)" stroke-width="10.00" stroke-opacity="1.00" stroke-linejoin="round"/>
<path d="M104.43,62.61 L42.85,24.63" fill="none" stroke="rgb(62, 65, 73)" stroke-width="10.00" stroke-opacity="1.00" stroke-linejoin="round"/>
<path d="M42.59,24.63 L159.59,-7.95" fill="none" stroke="rgb(62, 65, 73)" stroke-width="10.00" stroke-opacity="1.00" stroke-linejoin="round"/>
<path d="M44.13,23.86 L-34.38,-25.66" fill="none" stroke="rgb(62, 65, 73)" stroke-width="10.00" stroke-opacity="1.00" stroke-linejoin="round"/>
</g>
</svg>
